{"title":"Careful.What.You.Wish.For.2015.DVDRip.XviD.MP3-RARBG","uid":11789588,"size":1187449211,"categoryP":"video","categoryS":"movies","magnet":"?xt=urn:btih:01f9f055665e5950fa8288baa230af15f28b5c04&amp;dn=Careful.What.You.Wish.For.2015.DVDRip.XviD.MP3-RARBG&amp;tr=udp%3A%2F%2Ftracker.openbittorrent.com%3A80&amp;tr=udp%3A%2F%2Fopen.demonii.com%3A1337&amp;tr=udp%3A%2F%2Ftracker.coppersurfer.tk%3A6969&amp;tr=udp%3A%2F%2Fexodus.desync.com%3A6969","seeders":12,"leechers":4,"uploader":"makintos13","files":4,"time":1427885234,"description":"screen: &lt;a href=&quot;\nhttp://imgmak.com/T5&quot; rel=&quot;nofollow&quot; target=&quot;_NEW&quot;&gt;\nhttp://imgmak.com/T5&lt;/a&gt; &lt;a href=&quot;\nhttp://imgmak.com/T1&quot; rel=&quot;nofollow&quot; target=&quot;_NEW&quot;&gt;\nhttp://imgmak.com/T1&lt;/a&gt; &lt;a href=&quot;\nhttp://imgmak.com/TU&quot; rel=&quot;nofollow&quot; target=&quot;_NEW&quot;&gt;\nhttp://imgmak.com/TU&lt;/a&gt; \n\nFormat                                   : AVI\nFormat/Info                              : Audio Video Interleave\nFile size                                : 1.10 GiB\nDuration                                 : 1h 27mn\nOverall bit rate                         : 1 804 Kbps\nMovie name                               : RARBG.COM - Careful.What.You.Wish.For.2015.DVDRip.XviD.MP3-RARBG\nWriting library                          : VirtualDub build 35491/release\nComment                                  : RARBG.COM - Careful.What.You.Wish.For.2015.DVDRip.XviD.MP3-RARBG\n\nVideo\nID                                       : 0\nFormat                                   : MPEG-4 Visual\nFormat profile                           : Simple@L5\nFormat settings, BVOP                    : No\nFormat settings, QPel                    : No\nFormat settings, GMC                     : No warppoints\nFormat settings, Matrix                  : Default (H.263)\nCodec ID                                 : XVID\nCodec ID/Hint                            : XviD\nDuration                                 : 1h 27mn\nBit rate                                 : 1 599 Kbps\nWidth                                    : 720 pixels\nHeight                                   : 304 pixels\nDisplay aspect ratio                     : 2.35:1\nFrame rate                               : 25.000 fps\nColor space                              : YUV\nChroma subsampling                       : 4:2:0\nBit depth                                : 8 bits\nScan type                                : Progressive\nCompression mode                         : Lossy\nBits/(Pixel*Frame)                       : 0.292\nStream size                              : 1 003 MiB (89%)\nWriting library                          : Lavc56.20.100\n\nAudio\nID                                       : 1\nFormat                                   : MPEG Audio\nFormat version                           : Version 1\nFormat profile                           : Layer 3\nMode                                     : Joint stereo\nCodec ID                                 : 55\nCodec ID/Hint                            : MP3\nDuration                                 : 1h 27mn\nBit rate mode                            : Constant\nBit rate                                 : 192 Kbps\nChannel(s)                               : 2 channels\nSampling rate                            : 48.0 KHz\nCompression mode                         : Lossy\nStream size                              : 120 MiB (11%)\nAlignment                                : Aligned on interleaves\nInterleave, duration                     : 24 ms (0.60 video frame)\nInterleave, preload duration             : 504 ms\nWriting library                          : LAME","torrent":{"xt":"urn:btih:01f9f055665e5950fa8288baa230af15f28b5c04","amp;dn":"Careful.What.You.Wish.For.2015.DVDRip.XviD.MP3-RARBG","amp;tr":["udp%3A%2F%2Ftracker.openbittorrent.com%3A80","udp%3A%2F%2Fopen.demonii.com%3A1337","udp%3A%2F%2Ftracker.coppersurfer.tk%3A6969","udp%3A%2F%2Fexodus.desync.com%3A6969"],"infoHash":"01f9f055665e5950fa8288baa230af15f28b5c04","infoHashBuffer":{"type":"Buffer","data":[1,249,240,85,102,94,89,80,250,130,136,186,162,48,175,21,242,139,92,4]},"announce":[],"urlList":[]}}